<svg id="svg2" xmlns="http://www.w3.org/2000/svg" viewBox="0 0 240.5 360.5">
  <defs>
    <style>
      .cls-1, .cls-2, .cls-3 {
        fill: #fff;
      }
      .cls-3{
        fill: #000;
      }

      .cls-1, .cls-3 {
        stroke: #000;
      }

      .cls-1 {
        stroke-width: 0.5px;
      }

      .cls-3 {
        stroke-width: 0.51px;
      }

    </style>
  </defs>
  <title>draw4</title>
  <g id="g6694">
    <rect id="rect2987-8-5-81-2-1" class="cls-1" x="0.25" y="0.25" width="240" height="360" rx="40" ry="40"/>
    <rect id="rect3757-26-33-5-9-9" x="20.25" y="20.25" width="200" height="320" rx="20" ry="20"/>
    <path id="circle" class="cls-2" d="M180.25,80.25a160,160,0,0,0-160,160,40,40,0,0,0,40,40,160,160,0,0,0,160-160A40,40,0,0,0,180.25,80.25Z"/>
    
    
    <path id="circle" class="cls-3" d="M160,100.25a120,120,0,0,0-120,120,30,30,0,0,0,30,30,120,120,0,0,0,120-120A30,30,0,0,0,160.25,100Z"/>    
    
    <path id="4 upper" class="cls-2" d="M79.85,30.25l-19.6,40v10h24v10h10v-10h6v-10h-6v-20h-10v20H70.65l19.6-40Z"/>
    <path id="4 lower" class="cls-2" d="M160.65,330.25l19.6-40v-10h-24v-10h-10v10h-6v10h6v20h10v-20h13.6l-19.6,40Z"/>

  </g>
</svg>
